<svg width="16" height="16" viewBox="0 0 16 16" fill="none" xmlns="http://www.w3.org/2000/svg">
<path d="M8 0C12.4183 0 16 3.58172 16 8C16 12.4183 12.4183 16 8 16C3.58172 16 0 12.4183 0 8C0 3.58172 3.58172 0 8 0ZM8 1C4.13401 1 1 4.13401 1 8C1 11.866 4.13401 15 8 15C11.866 15 15 11.866 15 8C15 4.13401 11.866 1 8 1Z" fill="#0D0D0D"/>
<path d="M8 4C6.89543 4 6 4.89543 6 6C6 6.27614 5.77614 6.5 5.5 6.5C5.22386 6.5 5 6.27614 5 6C5 4.34315 6.34315 3 8 3C9.65685 3 11 4.34315 11 6C11 7.4865 9.91886 8.72048 8.5 8.95852V10.25C8.5 10.5261 8.27614 10.75 8 10.75C7.72386 10.75 7.5 10.5261 7.5 10.25V8.5C7.5 8.22386 7.72386 8 8 8C9.10457 8 10 7.10457 10 6C10 4.89543 9.10457 4 8 4Z" fill="#0D0D0D"/>
<path d="M8.00049 11.5C8.4147 11.5 8.75049 11.8358 8.75049 12.25C8.75049 12.6642 8.4147 13 8.00049 13C7.58627 13 7.25049 12.6642 7.25049 12.25C7.25049 11.8358 7.58627 11.5 8.00049 11.5Z" fill="#0D0D0D"/>
</svg>
