<svg width="16" height="16" viewBox="0 0 16 16" fill="none" xmlns="http://www.w3.org/2000/svg">
<circle cx="8" cy="8" r="8" fill="#E6E6E6"/>
<path d="M4.81351 4.10641C4.61825 3.91115 4.30167 3.91115 4.10641 4.10641C3.91115 4.30167 3.91115 4.61825 4.10641 4.81351L7.28844 7.99554L4.10648 11.1775C3.91122 11.3728 3.91122 11.6893 4.10648 11.8846C4.30175 12.0799 4.61833 12.0799 4.81359 11.8846L7.99554 8.70265L11.1775 11.8846C11.3727 12.0798 11.6893 12.0798 11.8846 11.8846C12.0798 11.6893 12.0798 11.3727 11.8846 11.1775L8.70265 7.99554L11.8847 4.81354C12.0799 4.61828 12.0799 4.30169 11.8847 4.10643C11.6894 3.91117 11.3728 3.91117 11.1776 4.10643L7.99554 7.28844L4.81351 4.10641Z" fill="#919191"/>
</svg>
